# xmcd
#
# Track frame offsets: 
#        150
#        29712
#        57016
#        87523
#        117249
#        148053
#        167637
#        210545
#        235766
#        268563
#        285286
#        307866
#
# Disc length: 4528 seconds
#
# Revision: 0
# Processed by: cddbd v1.5.2PL0 Copyright (c) Steve Scherf et al.
# Submitted via: ExactAudioCopy v0.95b3
#
DISCID=a211ae0c
DTITLE=Robert Cray - Cookin' In Mobile
DYEAR=2010
DGENRE=Blues
TTITLE0=Our Last Time
TTITLE1=Anytime
TTITLE2=Love 2009
TTITLE3=Right Next Door
TTITLE4=Chicken In The Kitchen
TTITLE5=Sitting On Top Of The World
TTITLE6=One In The Middle
TTITLE7=Whole Lotta Love
TTITLE8=Smoking Gun
TTITLE9=I Can't Fall
TTITLE10=That's What Keeps Me Rockin'
TTITLE11=Time Makes Two
EXTD=
EXTT0=
EXTT1=
EXTT2=
EXTT3=
EXTT4=
EXTT5=
EXTT6=
EXTT7=
EXTT8=
EXTT9=
EXTT10=
EXTT11=
PLAYORDER=
